<mxfile host="app.diagrams.net" modified="2023-11-14T13:48:26.864Z" agent="Mozilla/5.0 (Macintosh; Intel Mac OS X 10_15_7) AppleWebKit/537.36 (KHTML, like Gecko) Chrome/119.0.0.0 Safari/537.36" version="22.1.0" etag="21Qo9frHZ6g2yVTQ4du_" type="github">
  <diagram name="Page-1" id="fgOw8XhWeV06c3kf7nXC">
    <mxGraphModel>
      <root>
        <mxCell id="0" />
        <mxCell id="1" parent="0" />
      </root>
    </mxGraphModel>
  </diagram>
</mxfile>
